<svg id="visual" viewBox="0 0 100 50" width="100" height="50" xmlns="http://www.w3.org/2000/svg" xmlns:xlink="http://www.w3.org/1999/xlink" version="1.1"><rect x="0" y="0" width="100" height="50" fill="#18213c"></rect><defs><linearGradient id="grad1_0" x1="50%" y1="100%" x2="100%" y2="0%"><stop offset="10%" stop-color="#ffffff" stop-opacity="1"></stop><stop offset="90%" stop-color="#ffffff" stop-opacity="1"></stop></linearGradient></defs><defs><linearGradient id="grad1_1" x1="50%" y1="100%" x2="100%" y2="0%"><stop offset="10%" stop-color="#ffffff" stop-opacity="1"></stop><stop offset="90%" stop-color="#858798" stop-opacity="1"></stop></linearGradient></defs><defs><linearGradient id="grad1_2" x1="50%" y1="100%" x2="100%" y2="0%"><stop offset="10%" stop-color="#18213c" stop-opacity="1"></stop><stop offset="90%" stop-color="#858798" stop-opacity="1"></stop></linearGradient></defs><defs><linearGradient id="grad2_0" x1="0%" y1="100%" x2="50%" y2="0%"><stop offset="10%" stop-color="#ffffff" stop-opacity="1"></stop><stop offset="90%" stop-color="#ffffff" stop-opacity="1"></stop></linearGradient></defs><defs><linearGradient id="grad2_1" x1="0%" y1="100%" x2="50%" y2="0%"><stop offset="10%" stop-color="#858798" stop-opacity="1"></stop><stop offset="90%" stop-color="#ffffff" stop-opacity="1"></stop></linearGradient></defs><defs><linearGradient id="grad2_2" x1="0%" y1="100%" x2="50%" y2="0%"><stop offset="10%" stop-color="#858798" stop-opacity="1"></stop><stop offset="90%" stop-color="#18213c" stop-opacity="1"></stop></linearGradient></defs><g transform="translate(100, 50)"><path d="M-45 0C-43.2 -2.6 -41.4 -5.2 -41.2 -8.2C-41 -11.2 -42.4 -14.7 -41.6 -17.2C-40.7 -19.7 -37.5 -21.3 -35.8 -23.9C-34 -26.5 -33.6 -30.1 -31.1 -31.1C-28.6 -32.1 -24.1 -30.5 -21.7 -32.4C-19.3 -34.4 -19 -39.9 -16.8 -40.7C-14.7 -41.4 -10.5 -37.3 -7.4 -37.3C-4.3 -37.2 -2.1 -41.1 0 -45L0 0Z" fill="#4d5168"></path><path d="M-30 0C-28.8 -1.7 -27.6 -3.4 -27.5 -5.5C-27.3 -7.5 -28.3 -9.8 -27.7 -11.5C-27.1 -13.2 -25 -14.2 -23.8 -15.9C-22.6 -17.7 -22.4 -20.1 -20.7 -20.7C-19.1 -21.4 -16 -20.3 -14.4 -21.6C-12.8 -22.9 -12.7 -26.6 -11.2 -27.1C-9.8 -27.6 -7 -24.9 -4.9 -24.8C-2.9 -24.8 -1.4 -27.4 0 -30L0 0Z" fill="#c0c1ca"></path><path d="M-15 0C-14.4 -0.9 -13.8 -1.7 -13.7 -2.7C-13.7 -3.7 -14.1 -4.9 -13.9 -5.7C-13.6 -6.6 -12.5 -7.1 -11.9 -8C-11.3 -8.8 -11.2 -10 -10.4 -10.4C-9.5 -10.7 -8 -10.2 -7.2 -10.8C-6.4 -11.5 -6.3 -13.3 -5.6 -13.6C-4.9 -13.8 -3.5 -12.4 -2.5 -12.4C-1.4 -12.4 -0.7 -13.7 0 -15L0 0Z" fill="#ffffff"></path></g><g transform="translate(0, 0)"><path d="M45 0C45.3 3.1 45.6 6.3 44.1 8.8C42.7 11.3 39.5 13.2 37.9 15.7C36.3 18.2 36.3 21.2 34.9 23.3C33.6 25.5 30.9 26.8 29 29C27.1 31.2 26.1 34.4 23.9 35.8C21.7 37.1 18.3 36.7 15.7 37.9C13 39 11.1 41.7 8.6 43.2C6.1 44.6 3 44.8 0 45L0 0Z" fill="#4d5168"></path><path d="M30 0C30.2 2.1 30.4 4.2 29.4 5.9C28.5 7.5 26.3 8.8 25.3 10.5C24.2 12.1 24.2 14.1 23.3 15.6C22.4 17 20.6 17.8 19.3 19.3C18.1 20.8 17.4 22.9 15.9 23.8C14.5 24.8 12.2 24.5 10.5 25.3C8.7 26 7.4 27.8 5.7 28.8C4.1 29.7 2 29.9 0 30L0 0Z" fill="#c0c1ca"></path><path d="M15 0C15.1 1 15.2 2.1 14.7 2.9C14.2 3.8 13.2 4.4 12.6 5.2C12.1 6.1 12.1 7.1 11.6 7.8C11.2 8.5 10.3 8.9 9.7 9.7C9 10.4 8.7 11.5 8 11.9C7.2 12.4 6.1 12.2 5.2 12.6C4.3 13 3.7 13.9 2.9 14.4C2 14.9 1 14.9 0 15L0 0Z" fill="#ffffff"></path></g></svg>